<svg width="25" height="26" fill="none" xmlns="http://www.w3.org/2000/svg"><mask id="mask0_2_18" style="mask-type:alpha" maskUnits="userSpaceOnUse" x="0" y="0" width="25" height="26"><path fill="#D7F0FD" d="M0 0h25v26H0z"/></mask><g mask="url('#mask0_2_18')"><path d="M12.5 22.75c-.313 0-.612-.059-.898-.176a2.233 2.233 0 0 1-.769-.528L3.854 14.76a5.949 5.949 0 0 1-1.341-2.166 7.601 7.601 0 0 1-.43-2.546c0-1.86.582-3.458 1.745-4.794C4.991 3.918 6.441 3.25 8.178 3.25c.832 0 1.618.172 2.356.515A6.31 6.31 0 0 1 12.5 5.2a6.015 6.015 0 0 1 1.94-1.435 5.523 5.523 0 0 1 2.357-.515c1.736 0 3.19.668 4.362 2.004 1.172 1.336 1.758 2.925 1.758 4.767a7.4 7.4 0 0 1-.443 2.546 6.287 6.287 0 0 1-1.328 2.166l-7.005 7.313c-.226.235-.478.41-.756.528a2.253 2.253 0 0 1-.885.176Zm1.042-14.083c.173 0 .338.045.495.135.156.09.277.208.364.352l1.77 2.763h4.324a5.077 5.077 0 0 0 .365-1.896c-.035-1.246-.435-2.316-1.198-3.21-.764-.893-1.72-1.34-2.865-1.34-.538 0-1.055.108-1.55.325a3.643 3.643 0 0 0-1.289.948l-.703.785a.905.905 0 0 1-.338.257.999.999 0 0 1-.417.095.999.999 0 0 1-.417-.095 1.178 1.178 0 0 1-.364-.257l-.703-.785a3.997 3.997 0 0 0-1.276-.975 3.547 3.547 0 0 0-1.563-.352c-1.146 0-2.1.456-2.864 1.367-.764.912-1.146 1.991-1.146 3.237 0 .325.026.645.078.961.052.316.139.628.26.935h4.87c.174 0 .339.045.495.135.156.09.278.208.364.352l.912 1.409 1.406-4.388a1.11 1.11 0 0 1 .378-.542.96.96 0 0 1 .612-.216Zm.312 3.52-1.406 4.388c-.07.217-.2.397-.39.542-.192.144-.4.216-.626.216a.974.974 0 0 1-.495-.135.997.997 0 0 1-.364-.352l-1.77-2.763H6.145l6.172 6.42a.256.256 0 0 0 .09.067.279.279 0 0 0 .092.013.279.279 0 0 0 .091-.013.256.256 0 0 0 .091-.068l6.146-6.419h-3.203a.974.974 0 0 1-.495-.135 1.242 1.242 0 0 1-.39-.352l-.886-1.409Z" fill="#D7F0FD"/></g></svg>