<svg width="11" height="11" fill="none" xmlns="http://www.w3.org/2000/svg"><mask id="mask0_13_97" style="mask-type:alpha" maskUnits="userSpaceOnUse" x="0" y="0" width="11" height="11"><path fill="#D9D9D9" d="M0 0h11v11H0z"/></mask><g mask="url('#mask0_13_97')"><path d="M8.983 9.625 6.096 6.737a2.794 2.794 0 0 1-1.742.596c-.832 0-1.537-.288-2.114-.865s-.865-1.281-.865-2.114c0-.832.288-1.537.865-2.114s1.282-.865 2.114-.865c.833 0 1.537.288 2.114.865s.865 1.282.865 2.114a2.794 2.794 0 0 1-.596 1.742l2.888 2.887-.642.642ZM4.354 6.417c.573 0 1.06-.2 1.461-.602.401-.4.602-.888.602-1.46 0-.574-.2-1.06-.602-1.462a1.989 1.989 0 0 0-1.46-.601c-.574 0-1.06.2-1.462.601a1.989 1.989 0 0 0-.601 1.461c0 .573.2 1.06.601 1.461.401.401.888.602 1.461.602Z" fill="#fff"/></g></svg>